<svg xmlns="http://www.w3.org/2000/svg" viewBox="0 0 184 104" width="184" height="104"><title>Asha Hearing Clinic Logo</title><defs><linearGradient id="g1" x2="1" gradientUnits="userSpaceOnUse" gradientTransform="matrix(151.702,35.008,-17.122,74.196,18.414,-1.283)"><stop offset="0" stop-color="#102694"></stop><stop offset="1" stop-color="#00406f"></stop></linearGradient></defs><style> .s0 { fill: url(#g1) } .s1 { fill: #ffffff } .s2 { fill: #595b61 } .s3 { fill: #595b61;stroke: #595b61;stroke-miterlimit:100;stroke-width: .8 } .s4 { fill: none;stroke: #595b61;stroke-miterlimit:100;stroke-width: .8 } </style><path id="Object 5" fill-rule="evenodd" class="s0" d="m28.5 30.2c4.2 0.5 7.9 2.2 10.6 5.5 3.8 4.6 4.3 11.8 4.5 17.6 0.2 4.3 0.3 8.8 0.2 13.1-0.2 10.3-5.8 14.2-15.7 12.6q-0.8-0.1-1.6-0.3c-2.3-0.7-4.1-2-5.3-4.2-1.9-3.4-2.3-8-1.5-11.8 1.3-5.3 5-9 9.8-11.4 2-0.9 3.5-1.3 5.6-1.9 1-0.3 1.4-0.2 1.4-1.2-0.2-2.6-1-5.2-2.9-7-4.2-4-9.4-6-14.5-2.6-4 2.7-4.1 4.8-5.1 9.4-1.3 6.1-7.7 3.8-6.9-1.1 0.8-5.4 2.7-10.1 7.3-13.2 4.2-2.7 9.2-4 14.1-3.5zm47.5 13.7q-1.4-1.7-3.3-2.9-2-1.1-4.9-1.1-2.7 0-4.7 1.1-2 1.2-2 3.4 0 1.7 1.2 2.8 1.1 1.1 2.7 1.8 1.5 0.7 3.3 1 1.8 0.4 3 0.6 2.5 0.6 4.7 1.4 2.1 0.9 3.7 2.2 1.5 1.4 2.4 3.3 0.9 2 0.9 4.8 0 3.3-1.4 5.7-1.5 2.5-3.7 4-2.3 1.5-5.2 2.2-3 0.6-5.9 0.6-5 0-8.7-1.5-3.8-1.5-6.8-5.5l5.8-4.8q1.8 1.9 4.1 3.3 2.3 1.5 5.6 1.5 1.4 0 2.9-0.3 1.5-0.3 2.6-1 1.2-0.6 1.9-1.6 0.7-0.9 0.7-2.2 0-1.7-1.1-2.8-1-1.1-2.5-1.7-1.5-0.7-3.1-1-1.7-0.4-2.9-0.7-2.5-0.6-4.7-1.3-2.2-0.8-3.9-2.1-1.6-1.2-2.7-3.2-1-1.9-1-4.8 0-3.1 1.3-5.4 1.3-2.3 3.5-3.9 2.2-1.5 4.9-2.2 2.7-0.8 5.5-0.8 4.1 0 7.8 1.5 3.7 1.5 5.9 5.1zm18.5-33.9h7.6v30h0.1q1.5-3.2 5-5.2 3.6-2 8.2-2 2.9 0 5.5 0.9 2.7 0.9 4.7 2.8 2 1.8 3.1 4.7 1.2 2.9 1.2 6.9v25.8h-7.6v-23.7q0-2.8-0.7-4.8-0.8-1.9-2.1-3.2-1.2-1.2-2.9-1.7-1.6-0.6-3.4-0.6-2.4 0-4.4 0.8-2 0.7-3.5 2.4-1.5 1.6-2.4 4.2-0.8 2.5-0.8 6v20.6h-7.6zm49.3 28.7q3.2-3 7.5-4.5 4.2-1.4 8.4-1.4 4.4 0 7.6 1.1 3.1 1.1 5.2 2.9 2 1.9 3 4.3 0.9 2.4 0.9 5v20.4q0 2.1 0.1 3.9 0.1 1.8 0.3 3.4h-6.8q-0.2-3-0.2-6.1h-0.2q-2.5 3.9-6 5.5-3.5 1.6-8 1.6-2.8 0-5.3-0.8-2.6-0.7-4.5-2.2-1.9-1.6-3-3.8-1.1-2.2-1.1-5.2 0-3.9 1.8-6.5 1.7-2.6 4.7-4.3 3-1.6 7-2.3 4-0.7 8.6-0.7h5.5v-1.7q0-1.5-0.6-3.1-0.5-1.5-1.7-2.7-1.2-1.2-3-1.9-1.8-0.8-4.2-0.8-2.2 0-3.8 0.5-1.7 0.4-3 1-1.4 0.6-2.5 1.5-1.1 0.8-2.1 1.6zm21.4 15.9q-2.7 0-5.5 0.3-2.8 0.3-5.1 1.1-2.4 0.8-3.8 2.4-1.5 1.5-1.5 3.9 0 3.4 2.3 4.9 2.3 1.6 6.3 1.6 3.1 0 5.3-1.1 2.2-1.1 3.6-2.7 1.3-1.7 1.9-3.8 0.6-2.1 0.6-4.1v-2.5zm-136.3 17.7c0 0 6.1 2 7.4-3.9q0.1-5.2 0.3-10.4 0.1-2.2 0.2-4.5c-5.8 1.3-10 7.2-10.5 12.9-0.2 2.4 0.4 4.7 2.6 5.9z"></path><path id="Object 6" class="s1" d="m87.6 93.3q-0.9 0-1-1 0.1-0.9 1-1 1 0.1 1 1 0 1-1 1z"></path><path id="Object 7" fill-rule="evenodd" class="s2" d="m48.2 83.7c-0.3-0.3-0.6-0.5-1-0.5-0.4 0-0.8 0.2-0.8 0.8 0 0.5 0.4 0.7 1 1 0.7 0.4 1.6 0.9 1.6 2.3 0 1.6-1.1 2.5-2.4 2.5-0.9 0-1.7-0.4-2.2-0.9l0.9-1.3c0.3 0.3 0.8 0.6 1.3 0.6 0.4 0 0.7-0.3 0.7-0.8 0-0.5-0.4-0.8-1-1.1-0.9-0.4-1.6-0.9-1.6-2.2 0-1.8 1.3-2.5 2.4-2.5 0.9 0 1.6 0.3 2 0.8zm4.7 6.1c-1.6 0-3-1.8-3-4.1 0-2.2 1.4-4.1 3-4.1 1.7 0 3 1.9 3 4.1 0 2.3-1.3 4.1-3 4.1zm1.2-4.1c0-1.3-0.5-2.4-1.2-2.4-0.6 0-1.2 1.1-1.2 2.4 0 1.3 0.6 2.4 1.2 2.4 0.7 0 1.2-1.1 1.2-2.4zm5.5 4.1c-1.9 0-2.6-1.4-2.6-3.1v-4.9h1.8v4.8c0 0.8 0.2 1.5 0.8 1.5 0.7 0 0.9-0.7 0.9-1.5v-4.8h1.8v4.9c0 1.7-0.8 3.1-2.7 3.1zm7.5-0.2l-1.8-4.7h-0.1l0.1 4.7h-1.6v-7.8h1.9l1.8 4.8h0.1l-0.1-4.8h1.5v7.8zm5.7 0h-2.2v-7.8h2.2c2.2 0 3.2 1.5 3.2 3.9 0 2.4-1 3.9-3.2 3.9zm0-6.2h-0.4v4.6h0.4c0.8 0 1.4-0.8 1.4-2.3 0-1.5-0.6-2.3-1.4-2.3zm10.6 6.2l-0.5-0.7c-0.3 0.5-0.8 0.8-1.6 0.8-1.4 0-2.2-0.8-2.2-2.3 0-1 0.5-1.7 1.3-2.1-0.4-0.5-0.6-1-0.6-1.6 0-1.3 0.9-2.1 2.1-2.1 1.1 0 1.9 0.7 1.9 1.9 0 1-0.7 1.6-1.4 2.1l0.6 0.9 0.6-1.2h1.6l-1.2 2.4 1.3 1.9zm-1.5-6.7c-0.3 0-0.5 0.3-0.5 0.8q0 0.5 0.4 1c0.3-0.3 0.6-0.6 0.6-1.1 0-0.4-0.2-0.7-0.5-0.7zm-0.7 3.5c-0.2 0.1-0.5 0.4-0.5 0.9 0 0.6 0.3 1 0.8 1 0.3 0 0.6-0.3 0.7-0.5zm10.9 3.2v-3.2h-1.8v3.2h-1.8v-7.7h1.8v2.9h1.8v-2.9h1.7v7.7zm3.3 0v-7.7h3.8v1.5h-2.1v1.5h1.9v1.5h-1.9v1.6h2.2v1.6zm8.5 0l-0.3-1.4h-1.7l-0.3 1.4h-1.8l1.9-7.7h2.2l1.9 7.7zm-1.2-6l-0.7 3.2h1.3zm3.9 6.1v-7.7h1.8v6.1h2v1.6zm7.1-6.3v6.3h-1.8v-6.3h-1.4v-1.4h4.6v1.4zm5.8 6.3v-3.2h-1.8v3.2h-1.7v-7.7h1.7v2.9h1.8v-2.9h1.8v7.7zm8.2 0.2c-1.8 0-3-1.7-3-4.1 0-2.4 1.2-4 3-4 1 0 1.7 0.4 2.1 0.9l-0.9 1.3c-0.3-0.4-0.6-0.6-1.1-0.6-0.9 0-1.4 1.1-1.4 2.4 0 1.4 0.5 2.4 1.4 2.4 0.5 0 0.8-0.2 1.1-0.6l0.9 1.3c-0.4 0.6-1 1-2.1 1zm3.1-0.2v-7.7h1.8v6.1h2v1.6zm6.6-7.7v7.7h-1.7v-7.7zm4.9 7.7l-1.8-4.7v4.7h-1.5v-7.7h1.9l1.8 4.7v-4.7h1.5v7.7zm5.2-7.7v7.7h-1.8v-7.7zm4.3 7.9c-1.8 0-3-1.7-3-4.1 0-2.4 1.2-4 3-4 1 0 1.7 0.4 2.1 0.9l-0.9 1.3c-0.3-0.4-0.6-0.6-1.1-0.6-0.9 0-1.4 1.1-1.4 2.4 0 1.4 0.5 2.4 1.5 2.4 0.4 0 0.8-0.2 1-0.6l1 1.3c-0.5 0.6-1.1 1-2.2 1zm6.3-6.1c-0.2-0.3-0.6-0.5-1-0.5-0.4 0-0.7 0.3-0.7 0.8 0 0.5 0.3 0.7 0.9 1 0.7 0.4 1.7 1 1.7 2.3 0 1.7-1.2 2.5-2.4 2.5-1 0-1.8-0.4-2.2-0.9l0.9-1.3c0.3 0.4 0.7 0.6 1.2 0.6 0.4 0 0.8-0.3 0.8-0.8 0-0.5-0.4-0.7-1.1-1.1-0.8-0.4-1.5-0.9-1.5-2.2 0-1.7 1.2-2.4 2.4-2.4 0.8 0 1.5 0.2 1.9 0.7zm4.3 5.9v-7.7h1.8v6.1h2v1.6zm4.9 0v-7.7h1.7v6.1h2.1v1.6zm7.3-2.8h-0.8v2.8h-1.7v-7.7h2.4c1.1 0 2.4 0.5 2.4 2.4 0 1.7-1.1 2.5-2.3 2.5zm-0.2-3.5h-0.6v2.1h0.6c0.5 0 0.9-0.4 0.9-1.1 0-0.7-0.4-1-0.9-1z"></path><path id="Object 8" class="s3" d="m20.3 86c0 0 8.5 0.1 8.9-0.1 0.2-0.1 1.3-1.6 1.3-1.3 0 0.4-0.3 2.4-0.1 2.4 0.3 0 0.5-0.9 1.2-1 0.2 0 0.4 0 0.6 0"></path><path id="Object 9" class="s4" d="m36.5 86c0 0 1.3 0.1 1.7-0.1 0.2-0.1 1.3-1.6 1.3-1.3 0 0.4-0.2 2.4-0.1 2.4 0.3 0 0.5-0.9 1.2-1 0.2 0 0.4 0 0.6 0"></path><path id="Object 10" class="s2" d="m41.8 86.8q-0.8 0-0.9-0.8 0.1-0.8 0.9-0.9 0.8 0.1 0.9 0.9-0.1 0.8-0.9 0.8z"></path><path id="Object 11" class="s1" d="m41.8 86.3q-0.3 0-0.4-0.3 0.1-0.4 0.4-0.4 0.3 0 0.3 0.4 0 0.3-0.3 0.3z"></path><path id="Object 12" class="s2" d="m35.3 88.5c1.3-1.9 0.8-4.4-1-5.6-0.1-0.1-0.3-0.1-0.4 0-0.1 0.2-0.1 0.4 0 0.4 1.6 1.1 2 3.3 0.9 4.8-0.1 0.1 0 0.3 0.1 0.4q0.1 0.1 0.2 0.1 0.1 0 0.2-0.1zm-1-0.8c0.8-1.2 0.5-2.9-0.7-3.8-0.2-0.1-0.3-0.1-0.4 0.1-0.1 0.1-0.1 0.3 0 0.4 1 0.7 1.3 2 0.6 3-0.1 0.1-0.1 0.3 0.1 0.4q0.1 0.1 0.2 0.1 0.1-0.1 0.2-0.2zm-1-0.7c0.4-0.7 0.3-1.6-0.4-2.1-0.2-0.1-0.3-0.1-0.4 0.1-0.1 0.1-0.1 0.3 0 0.4 0.5 0.3 0.6 0.9 0.3 1.3-0.1 0.1-0.1 0.3 0 0.4q0.2 0.1 0.3 0.1 0.1-0.1 0.2-0.2z"></path></svg>